<?xml version="1.0" encoding="iso-8859-1"?>
<!-- Uploaded to: SVG Repo, www.svgrepo.com, Generator: SVG Repo Mixer Tools -->
<svg fill="#000000" height="800px" width="800px" version="1.1" id="Capa_1" xmlns="http://www.w3.org/2000/svg" xmlns:xlink="http://www.w3.org/1999/xlink" 
	 viewBox="0 0 58 58" xml:space="preserve">
<g>
	<path d="M57,24h-6v-8c0-1.654-1.349-3-3.006-3h-9.988c-0.773,0-1.472,0.301-2.006,0.782C35.467,13.301,34.768,13,33.994,13h-9.988
		c-0.773,0-1.472,0.301-2.006,0.782C21.467,13.301,20.768,13,19.994,13h-9.988C8.349,13,7,14.346,7,16v8H1c-0.552,0-1,0.448-1,1v13
		c0,0.552,0.448,1,1,1h7h2v5c0,0.552,0.448,1,1,1h4c0.379,0,0.725-0.214,0.894-0.553L18.618,39h20.764l2.724,5.447
		C42.275,44.786,42.621,45,43,45h4c0.552,0,1-0.448,1-1v-5h2h7c0.552,0,1-0.448,1-1V25C58,24.448,57.552,24,57,24z M38.006,15h9.988
		C48.549,15,49,15.449,49,16v9v5H37V16C37,15.449,37.451,15,38.006,15z M24.006,15h9.988C34.549,15,35,15.449,35,16v14H23V16
		C23,15.449,23.451,15,24.006,15z M9,16c0-0.551,0.451-1,1.006-1h9.988C20.549,15,21,15.449,21,16v14H9v-5V16z M2,26h5v5v6H2V26z
		 M9,32h13h14h13v5h-2h-7H18h-7H9V32z M14.382,43H12v-4h4.382L14.382,43z M46,43h-2.382l-2-4H46V43z M56,37h-5v-6v-5h5V37z"/>
</g>
</svg>